Coordinates
nRows=10
nColumns=38

# SIMM Motion File Header:
name Coordinates
datacolumns 38
datarows 10
otherdata 1
range 4.41899999999999960000 4.42799999999999990000

Units are S.I. units (second, meters, Newtons, ...)
Angles are in degrees.

endheader
time	pelvis_tilt	pelvis_list	pelvis_rotation	pelvis_tx	pelvis_ty	pelvis_tz	hip_flexion_r	hip_adduction_r	hip_rotation_r	knee_angle_r	ankle_angle_r	subtalar_angle_r	mtp_angle_r	hip_flexion_l	hip_adduction_l	hip_rotation_l	knee_angle_l	ankle_angle_l	subtalar_angle_l	mtp_angle_l	lumbar_extension	lumbar_bending	lumbar_rotation	arm_flex_r	arm_add_r	arm_rot_r	elbow_flex_r	pro_sup_r	wrist_flex_r	wrist_dev_r	arm_flex_l	arm_add_l	arm_rot_l	elbow_flex_l	pro_sup_l	wrist_flex_l	wrist_dev_l
      4.41899999999999960000	     -6.34117173381645390000	     -0.18228173452354118000	     -1.05526751458791820000	      0.98347516590049833000	      1.00154196463027300000	     -0.31171556410228657000	     -9.83175237496818080000	     -0.30665320854114725000	     -7.41774733312581260000	    -27.71195979045786800000	    -11.56464705246036400000	      0.00000000000010655300	      0.00000000000005510234	     27.12342933117276200000	      3.98976910012744980000	     -2.40247551372543590000	    -12.98595510346225800000	      0.10928905887993859000	      0.00000000000000669341	      0.00000000000002418573	     -6.03431714581115130000	     -1.23475496138975970000	     13.91341674449530600000	    -14.54271009647761500000	    -28.09290722270474600000	     -3.46794855500607820000	    117.66979213721105000000	     82.81000980542579300000	     -0.00000000000001484319	      0.00000000000004713808	    -33.41938540141947600000	    -22.63924252346442900000	     -1.49207220572972910000	    111.02167917909811000000	    112.84465516762224000000	     -0.00000000000001064098	     -0.00000000000001432310
      4.41999999999999990000	     -6.34251887683391490000	     -0.20352379468592643000	     -1.09189367909829670000	      0.98363296346333562000	      1.00122210793752790000	     -0.31175391157698368000	     -9.69971724988024770000	     -0.31635720374333459000	     -7.29806580138269910000	    -28.12958624151378800000	    -11.69534390263951800000	      0.00000000000010680496	      0.00000000000005549976	     27.09581615039761400000	      3.96895756081708880000	     -2.51673497027594760000	    -13.11091175044680800000	     -0.01346131785855522200	      0.00000000000000673359	      0.00000000000002424488	     -6.00769192189361600000	     -1.21453424796349240000	     13.91019380823018500000	    -14.58466828001950900000	    -28.09541965847632400000	     -3.47389407769129170000	    117.66387575872544000000	     82.83790055405842200000	     -0.00000000000001490017	      0.00000000000004730194	    -33.42313304980893200000	    -22.62010439957564100000	     -1.53903970102981600000	    111.08202068774294000000	    112.79811919339930000000	     -0.00000000000001067707	     -0.00000000000001439953
      4.42100000000000030000	     -6.34123068826489260000	     -0.22331853576358765000	     -1.12833024197344730000	      0.98378867368473322000	      1.00089847174588180000	     -0.31179219154290089000	     -9.56815809708842480000	     -0.32730879618748543000	     -7.17945938627194560000	    -28.55007749374014400000	    -11.82879088285939800000	      0.00000000000010705700	      0.00000000000005589729	     27.06739837381124800000	      3.94958952139849330000	     -2.63065831923135370000	    -13.24413528247110400000	     -0.13276571037762835000	      0.00000000000000677273	      0.00000000000002430562	     -5.98435695198759190000	     -1.19607445171828820000	     13.90565505998391900000	    -14.62570852394928300000	    -28.09725245310608300000	     -3.47927409967859670000	    117.65639307865976000000	     82.86568353978799500000	     -0.00000000000001495627	      0.00000000000004746573	    -33.42552282965363000000	    -22.60184224214709700000	     -1.58595006615853000000	    111.14256991355076000000	    112.75056338843468000000	     -0.00000000000001071360	     -0.00000000000001447630
      4.42199999999999970000	     -6.33708654771296320000	     -0.24159171992512410000	     -1.16442732814654560000	      0.98394218703565139000	      1.00057147502197030000	     -0.31183066696071887000	     -9.43737061330875630000	     -0.33958640492945602000	     -7.06218391713839020000	    -28.97324522257503800000	    -11.96499333426600300000	      0.00000000000010730832	      0.00000000000005629583	     27.03802592638473000000	      3.93180921098594860000	     -2.74392468248594360000	    -13.38550358001323900000	     -0.24788440052938329000	      0.00000000000000681211	      0.00000000000002436710	     -5.96457713257484730000	     -1.17944346491320910000	     13.89964401531589100000	    -14.66577061377961600000	    -28.09842546185123200000	     -3.48406535831964700000	    117.64735214329704000000	     82.89333889669241300000	     -0.00000000000001501241	      0.00000000000004763016	    -33.42650133980382800000	    -22.58446099228782300000	     -1.63277547451146820000	    111.20332085997160000000	    112.70207942167333000000	     -0.00000000000001075005	     -0.00000000000001455344
      4.42300000000000000000	     -6.33012783249727470000	     -0.25831455409804333000	     -1.20003806908818360000	      0.98409329039574067000	      1.00024115515202670000	     -0.31186959711474593000	     -9.30733021407210790000	     -0.35321762826038322000	     -6.94646520428942260000	    -29.39899529869014200000	    -12.10389401765486300000	      0.00000000000010755899	      0.00000000000005669468	     27.00787950051663000000	      3.91571066702204630000	     -2.85620053186635840000	    -13.53500411527479100000	     -0.35809254020709036000	      0.00000000000000684875	      0.00000000000002443233	     -5.94832599875692840000	     -1.16465301318926760000	     13.89201142403198100000	    -14.70483975798726700000	    -28.09894824761417800000	     -3.48825104910846350000	    117.63675153219336000000	     82.92086424857566800000	     -0.00000000000001506748	      0.00000000000004779547	    -33.42605230806665200000	    -22.56795959308405100000	     -1.67949108477482590000	    111.26424869266476000000	    112.65276852991391000000	     -0.00000000000001078663	     -0.00000000000001463134
      4.42399999999999950000	     -6.32056474540779690000	     -0.27348210306311377000	     -1.23502261252181040000	      0.98424170191092852000	      0.99990731033117664000	     -0.31190923287452194000	     -9.17780526250293600000	     -0.36820458556677360000	     -6.83250460602877130000	    -29.82730030209304300000	    -12.24538515963913800000	      0.00000000000010781055	      0.00000000000005709304	     26.97735197920529500000	      3.90135937504862660000	     -2.96715059970060930000	    -13.69269807191096600000	     -0.46267922223583313000	      0.00000000000000688267	      0.00000000000002449830	     -5.93539123595958620000	     -1.15168532487271480000	     13.88261703073241000000	    -14.74292809610571100000	    -28.09882312116162200000	     -3.49181903426702740000	    117.62458198035532000000	     82.94826923398763100000	     -0.00000000000001512243	      0.00000000000004796053	    -33.42418046368723600000	    -22.55233496911916500000	     -1.72607411304717790000	    111.32531611912268000000	    112.60273712191983000000	     -0.00000000000001082333	     -0.00000000000001470956
      4.42499999999999980000	     -6.30871112873785740000	     -0.28710100082362822000	     -1.26924974081726450000	      0.98438709645341871000	      0.99956959772461940000	     -0.31194981463755939000	     -9.04843679184244110000	     -0.38453835201654601000	     -6.72048312868372920000	    -30.25817907574316800000	    -12.38931762316769900000	      0.00000000000010806491	      0.00000000000005749104	     26.94696528515493500000	      3.88880507087045310000	     -3.07644496092017850000	    -13.85869580617893200000	     -0.56095349591622057000	      0.00000000000000692170	      0.00000000000002456259	     -5.92544826785767500000	     -1.14050858042395880000	     13.87132997737305800000	    -14.78006235497207400000	    -28.09804783963742000000	     -3.49476078247738850000	    117.61082802213917000000	     82.97557129350907700000	     -0.00000000000001517549	      0.00000000000004812592	    -33.42090065209023200000	    -22.53758430228554100000	     -1.77250304815472810000	    111.38647788381039000000	    112.55209376628919000000	     -0.00000000000001085962	     -0.00000000000001478753
      4.42600000000000020000	     -6.29493799039283970000	     -0.29918173746833721000	     -1.30259627279782380000	      0.98452912353539235000	      0.99922760353416507000	     -0.31199157299603197000	     -8.91879572879758340000	     -0.40220784302638174000	     -6.61056574750455360000	    -30.69168098562291300000	    -12.53550835597516800000	      0.00000000000010831964	      0.00000000000005788936	     26.91731162975076700000	      3.87809054349393900000	     -3.18376318120403970000	    -14.03313959292832900000	     -0.65226039866292451000	      0.00000000000000695834	      0.00000000000002462563	     -5.91811263232161710000	     -1.13108667591809930000	     13.85802751005958700000	    -14.81627523910549900000	    -28.09661752639069500000	     -3.49707064159899250000	    117.59546919270700000000	     83.00279265912628500000	     -0.00000000000001522449	      0.00000000000004829363	    -33.41623013477294500000	    -22.52370645708035500000	     -1.81875699303696090000	    111.44768375597818000000	    112.50094695174276000000	     -0.00000000000001089574	     -0.00000000000001486559
      4.42699999999999960000	     -6.27963625494651100000	     -0.30973348696013470000	     -1.33494565752664850000	      0.98466742198275459000	      0.99888089889428910000	     -0.31203473033388729000	     -8.78842888695434080000	     -0.42120571745436297000	     -6.50290544672180900000	    -31.12787258201454000000	    -12.68374631109454000000	      0.00000000000010857427	      0.00000000000005828778	     26.88900663703699200000	      3.86925809706247480000	     -3.28879671677162120000	    -14.21618981488183100000	     -0.73599475949849280000	      0.00000000000000699587	      0.00000000000002468860	     -5.91298170540945470000	     -1.12338586504469000000	     13.84259317582519000000	    -14.85159892562024800000	    -28.09452626432219800000	     -3.49874530609306380000	    117.57848120325518000000	     83.02995786790477000000	     -0.00000000000001527185	      0.00000000000004846092	    -33.41018275984809100000	    -22.51070286219647800000	     -1.86481506009151500000	    111.50888083742824000000	    112.44940325777856000000	     -0.00000000000001093173	     -0.00000000000001494402
      4.42799999999999990000	     -6.26318277661563540000	     -0.31875970472264681000	     -1.36618612923945130000	      0.98480163343801408000	      0.99852909074751872000	     -0.31207950297802400000	     -8.65690085803614730000	     -0.44153340086987164000	     -6.39764734984302840000	    -31.56682492682935100000	    -12.83379755999078100000	      0.00000000000010883022	      0.00000000000005868585	     26.86264685515771000000	      3.86235536568236880000	     -3.39125063720771710000	    -14.40801213111820200000	     -0.81161484339844991000	      0.00000000000000703264	      0.00000000000002475243	     -5.90967246686531400000	     -1.11738041326494300000	     13.82491470465494200000	    -14.88605950186451200000	    -28.09176845226775800000	     -3.49978333449113870000	    117.55983717039165000000	     83.05709150388239000000	     -0.00000000000001532085	      0.00000000000004862979	    -33.40276404048024300000	    -22.49857811930522200000	     -1.91065577367337760000	    111.57001560163725000000	    112.39756565556794000000	     -0.00000000000001096794	     -0.00000000000001502280
